<?xml version="1.0" encoding="UTF-8" standalone="no"?>
<!-- Created with Inkscape (http://www.inkscape.org/) -->

<svg
   width="100mm"
   height="22.897591mm"
   viewBox="0 0 100 22.897591"
   version="1.1"
   id="svg5"
   xmlns="http://www.w3.org/2000/svg"
   xmlns:svg="http://www.w3.org/2000/svg">
  <defs
     id="defs2" />
  <g
     id="layer1">
    <g
       id="g977"
       transform="matrix(0.98823228,0,0,0.98823228,-91.695212,-86.100627)">
      <path
         id="path743"
         style="fill: #2200ff; stroke-width:0.264583"
         d="m 96.780656,87.125948 c -0.150518,0 -0.268284,0.0187 -0.35295,0.05633 -0.07526,0.03763 -0.131355,0.08918 -0.168982,0.15503 -0.03763,0.05644 -0.06139,0.122661 -0.0708,0.19792 v 0.211357 c 0.0094,0.686739 0.02811,1.31699 0.05633,1.890841 0.02823,0.564443 0.05653,1.128993 0.08475,1.693436 0.02823,0.555036 0.05198,1.138284 0.0708,1.749764 0.02822,0.611481 0.04237,1.302886 0.04237,2.074292 -0.319851,-0.150517 -0.635234,-0.225826 -0.945678,-0.225826 -0.395111,0 -0.752435,0.103613 -1.072286,0.310576 -0.310445,0.206962 -0.578825,0.456129 -0.804602,0.747758 -0.225778,0.282221 -0.404181,0.573845 -0.535885,0.874882 -0.131707,0.301036 -0.216621,0.545657 -0.254248,0.733805 -0.01881,0.09407 -0.02842,0.188079 -0.02842,0.282153 -0.0094,0.08467 -0.01395,0.165036 -0.01395,0.240296 0,0.564443 0.160223,1.034471 0.480074,1.410766 0.319852,0.376293 0.771181,0.564822 1.35444,0.564822 0.43274,0 0.818369,-0.0895 1.157035,-0.268199 0.338666,-0.188148 0.625745,-0.414071 0.860929,-0.677478 0.05644,0.131704 0.136298,0.258559 0.239779,0.380855 0.112888,0.122297 0.244806,0.235517 0.395325,0.338998 0.150517,0.09405 0.319831,0.169354 0.507979,0.225824 0.188148,0.0565 0.385765,0.0847 0.592729,0.0847 0.263406,0 0.508027,-0.0475 0.733805,-0.1416 0.235184,-0.103474 0.446439,-0.230329 0.634587,-0.380848 0.10747,-0.09135 0.208146,-0.186213 0.303333,-0.283703 0.14007,0.184012 0.29745,0.349414 0.47284,0.495577 0.34808,0.282224 0.74331,0.488924 1.18546,0.620634 0.45156,0.14108 0.9221,0.1977 1.41128,0.1695 0.80904,-0.0659 1.52875,-0.24478 2.15904,-0.53641 0.6303,-0.291626 1.2277,-0.76165 1.79214,-1.41076 0.0471,-0.04704 0.0845,-0.108192 0.11266,-0.183451 0.0282,-0.07526 0.0424,-0.155629 0.0424,-0.240295 0,-0.08467 -0.0142,-0.169066 -0.0424,-0.253732 -0.0282,-0.08467 -0.0798,-0.159972 -0.15503,-0.225826 -0.13171,-0.131701 -0.27777,-0.183249 -0.4377,-0.155029 -0.15992,0.02822 -0.29184,0.07977 -0.39533,0.155029 -0.254,0.197556 -0.50317,0.395174 -0.74775,0.592729 -0.23519,0.188148 -0.47981,0.357461 -0.73381,0.507979 -0.254,0.150518 -0.51277,0.272829 -0.77618,0.366903 -0.26341,0.09407 -0.54087,0.141077 -0.83251,0.141077 -0.18814,0 -0.3807,-0.0096 -0.57826,-0.02842 -0.18814,-0.02822 -0.3716,-0.07522 -0.55035,-0.141077 -0.17874,-0.06585 -0.34805,-0.159857 -0.50798,-0.282153 -0.15051,-0.122296 -0.28243,-0.277457 -0.39532,-0.465605 0.3857,-0.235185 0.74809,-0.479806 1.08675,-0.733805 0.33867,-0.254 0.62069,-0.531471 0.84646,-0.832508 0.23519,-0.310444 0.39996,-0.644525 0.49403,-1.002006 0.0941,-0.366888 0.0941,-0.77576 0,-1.227315 -0.0376,-0.150518 -0.0988,-0.292043 -0.18345,-0.423747 -0.0753,-0.141111 -0.17887,-0.258359 -0.31058,-0.352433 -0.1317,-0.103484 -0.29647,-0.178793 -0.49402,-0.225826 -0.19756,-0.05644 -0.42803,-0.07514 -0.69144,-0.05633 -0.42333,0.02822 -0.78975,0.150533 -1.10019,0.366902 -0.31044,0.21637 -0.56921,0.498387 -0.776173,0.84646 -0.206962,0.338667 -0.357578,0.728841 -0.451652,1.170988 -0.09407,0.432741 -0.13653,0.880042 -0.127124,1.341004 0.0046,0.261988 0.03437,0.510134 0.08837,0.745174 -0.02895,0.03281 -0.05864,0.06615 -0.08837,0.101286 -0.103481,0.122296 -0.211639,0.240061 -0.324528,0.35295 -0.103481,0.103481 -0.211639,0.192424 -0.324528,0.267684 -0.112888,0.07526 -0.225592,0.113171 -0.33848,0.113171 -0.141112,0 -0.254331,-0.03791 -0.338998,-0.113171 -0.08466,-0.07526 -0.15491,-0.169265 -0.211356,-0.282154 -0.04704,-0.112888 -0.07989,-0.225592 -0.0987,-0.33848 -0.01881,-0.122296 -0.02842,-0.225909 -0.02842,-0.310576 0,-0.423333 0.0045,-0.818569 0.01395,-1.185457 0.01881,-0.366888 0.02842,-0.700453 0.02842,-1.001489 0,-0.413925 -0.0096,-0.94108 -0.02842,-1.580782 -0.0094,-0.64911 -0.02811,-1.345061 -0.05633,-2.088245 -0.02823,-0.743184 -0.06108,-1.505352 -0.0987,-2.286165 -0.03763,-0.790221 -0.07555,-1.533175 -0.113171,-2.229322 -0.0094,-0.103481 -0.06096,-0.197486 -0.15503,-0.282153 C 97.19457,87.168354 97.025253,87.1259 96.780661,87.1259 Z m 5.146974,7.729244 c 0.0635,0.0024 0.12592,0.01777 0.18707,0.04599 0.1223,0.05644 0.19255,0.160057 0.21135,0.310575 0.009,0.21637 -0.028,0.432687 -0.11265,0.649056 -0.0847,0.206963 -0.20244,0.404581 -0.35295,0.592729 -0.14111,0.188148 -0.31043,0.366552 -0.50798,0.535885 -0.19756,0.169333 -0.39972,0.324494 -0.60668,0.465604 -0.0376,-0.225777 -0.0467,-0.474943 -0.0279,-0.747758 0.0282,-0.272814 0.0798,-0.531588 0.15503,-0.77618 0.0847,-0.244592 0.19737,-0.460908 0.33848,-0.649056 0.14111,-0.197553 0.31549,-0.328954 0.52245,-0.394808 0.0658,-0.02352 0.13029,-0.03439 0.19379,-0.03204 z m -6.176885,1.21698 c 0.244592,0 0.422996,0.103613 0.535884,0.310575 0.122296,0.197556 0.183452,0.460875 0.183452,0.790133 0,0.225778 -0.047,0.437548 -0.141077,0.635103 -0.08467,0.197556 -0.202432,0.366869 -0.35295,0.50798 -0.150519,0.14111 -0.324377,0.253814 -0.521932,0.33848 -0.197555,0.08467 -0.399719,0.127124 -0.606681,0.127124 -0.235186,0 -0.437349,-0.06115 -0.606682,-0.183451 -0.169332,-0.131704 -0.254248,-0.324259 -0.254248,-0.578259 0,-0.253999 0.05661,-0.49862 0.169499,-0.733806 0.122296,-0.235184 0.267849,-0.44241 0.437183,-0.62115 0.17874,-0.178741 0.371813,-0.319749 0.578776,-0.42323 0.206962,-0.112889 0.400035,-0.169499 0.578776,-0.169499 z" />
      <path
         id="path737"
         style="fill: #2200ff; stroke-width:0.264583"
         d="m 145.37924,88.565137 c -0.24459,0 -0.45636,0.07985 -0.6351,0.239778 -0.17874,0.159926 -0.32936,0.357545 -0.45166,0.592729 -0.1317,0.225778 -0.23479,0.470399 -0.31005,0.733805 -0.0753,0.254 -0.12735,0.484469 -0.15555,0.691431 -0.0565,0.395111 -0.0938,0.785802 -0.11265,1.171505 -0.0282,0.376295 -0.0424,0.75738 -0.0424,1.143082 0,0.874888 0.0515,1.735607 0.15503,2.582272 0.0914,0.813389 0.20528,1.631329 0.34106,2.453597 -0.0424,0.05153 -0.0838,0.102134 -0.12919,0.156579 -0.14111,0.169333 -0.32003,0.324494 -0.5364,0.465605 -0.20696,0.141111 -0.48443,0.211873 -0.83251,0.211873 h -0.53588 c -0.1317,-0.0094 -0.25401,-0.02811 -0.3669,-0.05633 -0.10348,-0.02822 -0.20255,-0.06613 -0.29663,-0.113171 -0.0941,-0.05644 -0.19768,-0.131236 -0.31057,-0.22531 0.24459,-0.169333 0.47051,-0.36695 0.67748,-0.592728 0.20696,-0.235185 0.38082,-0.479806 0.52193,-0.733806 0.15052,-0.263407 0.26828,-0.526726 0.35295,-0.790132 0.0847,-0.272815 0.12712,-0.531588 0.12712,-0.77618 0,-0.206963 -0.0379,-0.409643 -0.11317,-0.607198 -0.0564,-0.141112 -0.14084,-0.267967 -0.25373,-0.380856 -0.10348,-0.122295 -0.22579,-0.225908 -0.3669,-0.310575 -0.14112,-0.08467 -0.29173,-0.150371 -0.45165,-0.197404 -0.15052,-0.04704 -0.29607,-0.07028 -0.43719,-0.07028 -0.31044,0 -0.60207,0.07985 -0.87488,0.239779 -0.27281,0.150518 -0.50835,0.352681 -0.7059,0.606681 -0.19756,0.244592 -0.35272,0.522064 -0.4656,0.832507 -0.11289,0.310444 -0.1695,0.616221 -0.1695,0.917257 0,0.413926 0.0708,0.82786 0.21187,1.241785 0.0135,0.04248 0.0282,0.08441 0.0434,0.12609 -0.11895,0.09434 -0.23718,0.188844 -0.35398,0.283187 -0.23519,0.188148 -0.47981,0.357461 -0.73381,0.507979 -0.254,0.150518 -0.51226,0.272829 -0.77566,0.366903 -0.26341,0.09407 -0.54139,0.141077 -0.83303,0.141077 -0.18814,0 -0.3807,-0.0096 -0.57826,-0.02842 -0.18814,-0.02822 -0.37161,-0.07522 -0.55035,-0.141077 -0.17874,-0.06585 -0.34805,-0.159857 -0.50798,-0.282153 -0.15052,-0.122296 -0.28244,-0.277457 -0.39532,-0.465605 0.3857,-0.235185 0.74808,-0.479806 1.08675,-0.733805 0.33867,-0.254 0.62068,-0.531471 0.84646,-0.832508 0.23518,-0.310444 0.39995,-0.644525 0.49403,-1.002006 0.0941,-0.366888 0.0941,-0.77576 0,-1.227315 -0.0376,-0.150518 -0.0988,-0.292043 -0.18345,-0.423747 -0.0753,-0.141111 -0.17888,-0.258359 -0.31058,-0.352433 -0.13171,-0.103484 -0.29596,-0.178793 -0.49351,-0.225826 -0.19755,-0.05644 -0.42853,-0.07514 -0.69195,-0.05633 -0.42332,0.02822 -0.78974,0.150533 -1.10019,0.366902 -0.31044,0.21637 -0.56922,0.498387 -0.77618,0.84646 -0.20696,0.338667 -0.35758,0.728841 -0.45165,1.170988 -0.0941,0.432741 -0.13652,0.880042 -0.12712,1.341004 0.005,0.266022 0.0353,0.517788 0.0909,0.756026 -0.083,0.09131 -0.17878,0.182573 -0.28836,0.273885 -0.10348,0.08467 -0.22125,0.159973 -0.35295,0.225826 -0.1223,0.05645 -0.25369,0.08475 -0.39481,0.08475 -0.19755,0 -0.38102,-0.06115 -0.55035,-0.183451 -0.16933,-0.131703 -0.32955,-0.301016 -0.48007,-0.507979 -0.14111,-0.206963 -0.27757,-0.442493 -0.40928,-0.7059 -0.12229,-0.272814 -0.23955,-0.545224 -0.35243,-0.818038 -0.13171,-0.291629 -0.26362,-0.56001 -0.39533,-0.804602 -0.12229,-0.254 -0.2633,-0.470316 -0.42323,-0.649056 -0.15052,-0.188148 -0.32438,-0.329156 -0.52193,-0.42323 -0.19755,-0.103481 -0.42802,-0.155546 -0.69143,-0.155546 -0.16933,0 -0.3528,0.047 -0.55036,0.141076 -0.18814,0.08467 -0.37667,0.197887 -0.56482,0.338998 -0.17874,0.131703 -0.35714,0.272711 -0.53588,0.42323 -0.16934,0.150518 -0.32449,0.282436 -0.46561,0.395324 v -0.254248 c 0,-0.385703 -0.047,-0.630323 -0.14107,-0.733805 -0.0847,-0.103481 -0.24944,-0.155029 -0.49403,-0.155029 -0.10348,0 -0.22579,0.01415 -0.3669,0.04237 -0.14111,0.02822 -0.25888,0.136381 -0.35295,0.324528 -0.1223,0.21637 -0.235,0.427625 -0.33848,0.634587 -0.0941,0.206963 -0.19769,0.428341 -0.31058,0.663525 -0.11289,0.225778 -0.2448,0.474945 -0.39532,0.747758 -0.13959,0.244278 -0.31297,0.522472 -0.51729,0.831474 -0.0566,0.0432 -0.12857,0.09037 -0.21652,0.14211 -0.15993,0.08467 -0.32924,0.127124 -0.50798,0.127124 -0.15993,0 -0.32418,-0.06115 -0.49351,-0.183451 -0.16933,-0.122296 -0.34371,-0.258759 -0.52245,-0.409277 -0.17874,-0.159926 -0.36675,-0.30548 -0.5643,-0.437183 -0.19756,-0.141112 -0.40933,-0.221482 -0.63511,-0.240295 -0.0564,-0.442147 -0.20706,-0.912175 -0.45165,-1.410767 -0.24459,-0.498591 -0.5453,-0.954984 -0.90279,-1.368909 -0.34807,-0.423333 -0.73876,-0.771566 -1.1715,-1.04438 -0.42334,-0.282222 -0.84182,-0.42323 -1.25574,-0.42323 -0.18815,0 -0.35292,0.07076 -0.49403,0.211873 -0.13172,0.141111 -0.21157,0.329122 -0.23977,0.564307 -0.0564,0.470369 -0.16461,0.903001 -0.32453,1.298112 -0.15993,0.39511 -0.3621,0.771649 -0.60668,1.12913 -0.23519,0.357481 -0.50357,0.700653 -0.80461,1.029911 -0.30103,0.329259 -0.62044,0.658795 -0.95911,0.988053 -0.1223,0.122296 -0.18345,0.263305 -0.18345,0.42323 0,0.178741 0.0612,0.329357 0.18345,0.451652 0.12229,0.122297 0.26785,0.183452 0.43718,0.183452 0.14112,0 0.30082,-0.06115 0.47956,-0.183452 0.33867,-0.263406 0.6586,-0.569183 0.95963,-0.917256 0.31045,-0.348074 0.58791,-0.715005 0.83251,-1.100708 0.254,-0.395111 0.47083,-0.794893 0.64957,-1.19941 0.18815,-0.413926 0.32916,-0.813707 0.42323,-1.19941 0.0282,-0.103481 0.0843,-0.155546 0.16898,-0.155546 0.1223,0 0.28707,0.09907 0.49403,0.296622 0.21637,0.197556 0.4236,0.432569 0.62115,0.705384 0.20697,0.272814 0.38537,0.559893 0.53588,0.860929 0.15995,0.291629 0.24941,0.540796 0.26821,0.747758 -0.21638,0.0094 -0.47009,0.03317 -0.76172,0.0708 -0.28222,0.02822 -0.55514,0.09847 -0.81855,0.211356 -0.26341,0.103482 -0.48479,0.26825 -0.66353,0.494027 -0.17874,0.21637 -0.26768,0.522146 -0.26768,0.917257 0,0.225778 0.0419,0.446639 0.12661,0.663008 0.0941,0.206963 0.22144,0.395491 0.38137,0.564824 0.16933,0.159926 0.36643,0.29133 0.59221,0.394815 0.23518,0.0941 0.49396,0.14107 0.77618,0.14107 0.28222,0 0.52685,-0.0516 0.73381,-0.15503 0.21637,-0.103478 0.39983,-0.239944 0.55035,-0.409277 0.15051,-0.178741 0.26828,-0.385967 0.35295,-0.621151 0.0941,-0.244592 0.16429,-0.502849 0.21136,-0.775663 0.19755,0.02822 0.38102,0.103012 0.55035,0.225309 0.17874,0.122296 0.35766,0.254214 0.5364,0.395325 0.18816,0.131704 0.38123,0.254014 0.57878,0.366902 0.20696,0.103482 0.44197,0.15503 0.70538,0.15503 0.21637,0 0.43269,-0.02779 0.64906,-0.08423 0.21637,-0.05644 0.40944,-0.136814 0.57877,-0.240295 0.16934,-0.103482 0.3058,-0.22073 0.40928,-0.352434 0.0259,-0.03528 0.0483,-0.07148 0.0677,-0.10852 0.0367,-0.04791 0.0755,-0.105156 0.11575,-0.17415 0.0752,-0.112888 0.14549,-0.235199 0.21136,-0.366902 0.0752,-0.131704 0.13638,-0.25856 0.18345,-0.380856 0.0565,-0.131703 0.0944,-0.235316 0.11317,-0.310575 0,0.940739 0.005,1.858068 0.014,2.751767 0.009,0.8937 0.0139,1.79233 0.0139,2.69545 0,1.20414 -0.005,2.38934 -0.0139,3.55585 v 3.59823 c 0,0.13174 0.0515,0.21665 0.15502,0.25425 0.10349,0.0471 0.21671,0.0703 0.339,0.0703 0.21638,0 0.39984,-0.0561 0.55036,-0.16898 0.15992,-0.1129 0.23977,-0.25896 0.23977,-0.4377 v -1.84847 -1.70739 c 0.009,-0.55504 0.014,-1.12413 0.014,-1.70739 v -1.89084 c 0.009,-0.66792 0.014,-1.40178 0.014,-2.20141 v -2.695446 c 0.10349,-0.122297 0.24955,-0.29161 0.4377,-0.50798 0.19755,-0.225777 0.39517,-0.442093 0.59273,-0.649056 0.20696,-0.21637 0.40458,-0.399836 0.59273,-0.550354 0.19755,-0.159925 0.34816,-0.239778 0.45165,-0.239778 0.1317,0 0.25401,0.108158 0.3669,0.324528 0.12229,0.206962 0.2537,0.470281 0.39481,0.790132 0.15051,0.310444 0.31074,0.649071 0.48007,1.015959 0.17874,0.366888 0.38545,0.710577 0.62064,1.030428 0.24459,0.310444 0.5266,0.573763 0.84646,0.790133 0.31985,0.206962 0.69185,0.310575 1.11517,0.310575 0.42334,0 0.82311,-0.117765 1.19941,-0.35295 0.13445,-0.08526 0.26342,-0.180153 0.38758,-0.283704 0.15034,0.206929 0.32201,0.390901 0.51521,0.551905 0.34807,0.282228 0.74331,0.488928 1.18546,0.620638 0.45155,0.14108 0.9221,0.1977 1.41128,0.1695 0.80904,-0.0659 1.52875,-0.24478 2.15904,-0.53641 0.43372,-0.200672 0.85166,-0.48582 1.25419,-0.855759 0.26906,0.263277 0.59838,0.482939 0.98909,0.658358 0.47037,0.206971 1.03492,0.310581 1.69343,0.310581 0.28223,0 0.5597,-0.0425 0.83251,-0.12713 0.27281,-0.0847 0.52704,-0.19737 0.76223,-0.33848 0.0473,-0.02911 0.0933,-0.05956 0.13849,-0.09043 0.0185,0.10014 0.0374,0.200652 0.0589,0.30179 0.0659,0.30103 0.15077,0.59772 0.25425,0.88935 0.10349,0.30104 0.23488,0.56435 0.39481,0.79013 0.16933,0.22577 0.36695,0.40418 0.59273,0.53589 0.23518,0.1411 0.51771,0.21187 0.84697,0.21187 0.508,0 0.92648,-0.12232 1.25574,-0.3669 0.33867,-0.2446 0.63484,-0.55491 0.88884,-0.93121 0.25399,-0.36689 0.47991,-0.76667 0.67747,-1.19941 0.20696,-0.442147 0.42783,-0.861143 0.66301,-1.256254 0.0128,-0.02081 0.024,-0.04169 0.0346,-0.06305 0.0341,-0.04564 0.0694,-0.09929 0.10645,-0.162781 0.0752,-0.112888 0.14601,-0.235199 0.21187,-0.366902 0.0753,-0.131704 0.13645,-0.25856 0.18345,-0.380856 0.0565,-0.131703 0.0939,-0.235316 0.11266,-0.310575 0,0.940739 0.005,1.858068 0.0145,2.751768 0.009,0.8937 0.0139,1.79233 0.0139,2.69545 0,1.20414 -0.005,2.38934 -0.0139,3.55585 v 3.59823 c 0,0.13174 0.0515,0.21665 0.15503,0.25425 0.10348,0.0471 0.21619,0.0703 0.33848,0.0703 0.21637,0 0.39984,-0.0561 0.55035,-0.16898 0.15993,-0.1129 0.2403,-0.25896 0.2403,-0.4377 v -1.84847 -1.70739 c 0.009,-0.55504 0.014,-1.12413 0.014,-1.70739 v -1.89084 c 0.009,-0.66792 0.0139,-1.40178 0.0139,-2.20141 v -2.695447 c 0.10349,-0.122297 0.24956,-0.29161 0.4377,-0.50798 0.19756,-0.225777 0.39518,-0.442093 0.59273,-0.649056 0.20697,-0.21637 0.40407,-0.399836 0.59221,-0.550354 0.19756,-0.159925 0.34817,-0.239778 0.45166,-0.239778 0.1317,0 0.25401,0.108158 0.3669,0.324528 0.1223,0.206962 0.25421,0.470281 0.39532,0.790132 0.15052,0.310444 0.31023,0.649071 0.47956,1.015959 0.17874,0.366888 0.38596,0.710577 0.62115,1.030428 0.24459,0.310444 0.52661,0.573763 0.84646,0.790133 0.31985,0.206962 0.69133,0.310575 1.11466,0.310575 0.42333,0 0.82311,-0.117765 1.19941,-0.35295 0.016,-0.01015 0.0317,-0.02111 0.0475,-0.03152 0.0238,0.136622 0.0502,0.273885 0.0796,0.412378 0.0659,0.301032 0.15076,0.597722 0.25424,0.889352 0.10348,0.30104 0.23488,0.56435 0.39481,0.79013 0.16933,0.22577 0.36695,0.40418 0.59273,0.53589 0.23519,0.1411 0.51772,0.21187 0.84698,0.21187 0.50799,0 0.92647,-0.12232 1.25573,-0.3669 0.33867,-0.2446 0.63484,-0.55491 0.88884,-0.93121 0.254,-0.36689 0.47992,-0.76667 0.67748,-1.199412 0.13326,-0.284706 0.27257,-0.559552 0.41754,-0.824755 0.29491,0.290095 0.61675,0.513273 0.96532,0.669209 0.35748,0.159928 0.70571,0.211993 1.04438,0.155546 0.30103,-0.04704 0.54059,-0.164802 0.71933,-0.35295 0.18816,-0.197555 0.33422,-0.465419 0.4377,-0.804085 0.0471,-0.159926 0.0754,-0.282236 0.0848,-0.366903 0.009,-0.09407 0.014,-0.207294 0.014,-0.338997 0.11288,0.197555 0.22104,0.409326 0.32452,0.635103 0.10348,0.21637 0.22125,0.423595 0.35295,0.621151 0.14112,0.188148 0.30082,0.343309 0.47956,0.465605 0.17874,0.122296 0.40467,0.183451 0.67748,0.183451 0.33867,0 0.68638,-0.122311 1.04386,-0.366903 0.29288,-0.2081 0.5542,-0.457568 0.78393,-0.747758 0.0549,-0.02483 0.0995,-0.05784 0.13333,-0.09922 0.0941,-0.11289 0.19314,-0.263504 0.29662,-0.451652 0.0941,0.169333 0.20678,0.315403 0.33848,0.437699 0.14111,0.122297 0.28718,0.225909 0.4377,0.310575 0.15052,0.07526 0.30062,0.136412 0.45114,0.183452 0.15051,0.03763 0.29204,0.05633 0.42374,0.05633 0.30104,0 0.5689,-0.047 0.80409,-0.141077 0.24459,-0.09407 0.45636,-0.22093 0.6351,-0.380855 0.0847,0.112889 0.19737,0.230137 0.33848,0.352433 0.14111,0.122296 0.30133,0.235516 0.48008,0.338998 0.17874,0.103479 0.36675,0.187878 0.5643,0.253731 0.19756,0.06585 0.39517,0.0987 0.59273,0.0987 0.29163,0 0.55495,-0.04194 0.79014,-0.126607 0.23518,-0.08467 0.44241,-0.18828 0.62115,-0.310576 0.092,-0.0678 0.17503,-0.136931 0.24959,-0.207222 0.24951,0.378797 0.54242,0.68311 0.87902,0.912609 0.42333,0.28222 0.92218,0.42323 1.49603,0.42323 0.3763,0 0.70532,-0.0657 0.98754,-0.19741 0.29163,-0.12229 0.5408,-0.27745 0.74776,-0.465602 0.21637,-0.197555 0.39529,-0.404781 0.5364,-0.621151 0.10788,-0.165408 0.20092,-0.312699 0.2868,-0.450618 2e-4,-1.21e-4 3.2e-4,-3.95e-4 5.2e-4,-5.17e-4 0.0216,-0.01327 0.0435,-0.02723 0.0656,-0.04238 0.33866,-0.263406 0.65808,-0.569183 0.95911,-0.917256 0.31045,-0.348074 0.58843,-0.715005 0.83303,-1.100708 0.25399,-0.395111 0.47031,-0.794893 0.64905,-1.19941 0.18815,-0.413926 0.32916,-0.813707 0.42323,-1.19941 0.0282,-0.103481 0.0848,-0.155546 0.1695,-0.155546 0.1223,0 0.28655,0.09907 0.49351,0.296622 0.21637,0.197556 0.4236,0.432569 0.62115,0.705384 0.20696,0.272814 0.38537,0.559893 0.53589,0.860929 0.15994,0.291629 0.2494,0.540796 0.2682,0.747758 -0.21637,0.0094 -0.47008,0.03317 -0.76171,0.0708 -0.28222,0.02822 -0.55515,0.09847 -0.81856,0.211356 -0.2634,0.103482 -0.48478,0.26825 -0.66352,0.494027 -0.17874,0.21637 -0.26769,0.522146 -0.26769,0.917257 0,0.225778 0.0419,0.446639 0.12661,0.663008 0.0941,0.206963 0.22145,0.395491 0.38137,0.564824 0.16934,0.159926 0.36696,0.29133 0.59273,0.394813 0.23519,0.0941 0.49344,0.14107 0.77566,0.14107 0.28223,0 0.52685,-0.0516 0.73381,-0.15503 0.21637,-0.103476 0.39983,-0.239942 0.55035,-0.409275 0.15052,-0.178741 0.26829,-0.385967 0.35295,-0.621151 0.0941,-0.244592 0.16481,-0.502849 0.21188,-0.775663 0.19755,0.02822 0.38102,0.103012 0.55035,0.225309 0.17874,0.122296 0.35715,0.254214 0.53589,0.395325 0.18814,0.131704 0.38121,0.254014 0.57877,0.366902 0.20696,0.103482 0.44198,0.15503 0.70539,0.15503 0.21637,0 0.43268,-0.02779 0.64905,-0.08423 0.21637,-0.05644 0.40944,-0.136814 0.57878,-0.240295 0.16933,-0.103482 0.30579,-0.22073 0.40927,-0.352434 0.10348,-0.14111 0.15503,-0.296271 0.15503,-0.465604 0,-0.188148 -0.0708,-0.334218 -0.21187,-0.4377 -0.14111,-0.103481 -0.27251,-0.155029 -0.39481,-0.155029 -0.0941,0 -0.17391,0.01416 -0.23978,0.04238 -0.0659,0.02823 -0.11287,0.05147 -0.14107,0.07028 -0.0564,0.06585 -0.1646,0.145704 -0.32453,0.239778 -0.15993,0.08467 -0.32976,0.127124 -0.5085,0.127124 -0.15992,0 -0.32417,-0.06115 -0.49351,-0.183451 -0.16933,-0.122296 -0.34371,-0.258759 -0.52245,-0.409277 -0.17874,-0.159926 -0.36675,-0.30548 -0.5643,-0.437183 -0.19756,-0.141112 -0.40933,-0.221482 -0.63511,-0.240295 -0.0564,-0.442147 -0.20654,-0.912175 -0.45113,-1.410767 -0.24459,-0.498591 -0.54583,-0.954984 -0.9033,-1.368909 -0.34808,-0.423333 -0.73877,-0.771566 -1.17151,-1.04438 -0.42333,-0.282222 -0.84181,-0.42323 -1.25574,-0.42323 -0.18814,0 -0.35291,0.07076 -0.49402,0.211873 -0.13173,0.141111 -0.21158,0.329122 -0.23978,0.564307 -0.0564,0.470369 -0.1646,0.903001 -0.32453,1.298112 -0.15993,0.39511 -0.36209,0.771649 -0.60668,1.12913 -0.23519,0.357481 -0.50305,0.700653 -0.80409,1.029911 -0.2699,0.295204 -0.55613,0.590531 -0.85628,0.885734 -0.0863,0.04167 -0.17264,0.122638 -0.25889,0.243396 -0.0753,0.112889 -0.15966,0.24429 -0.25374,0.394808 -0.0941,0.141111 -0.20222,0.277574 -0.32452,0.409277 -0.1223,0.131704 -0.26331,0.244924 -0.42323,0.338998 -0.15993,0.08467 -0.34845,0.126607 -0.56483,0.126607 -0.36688,0 -0.69136,-0.131401 -0.97358,-0.394808 -0.27281,-0.263406 -0.50328,-0.61164 -0.69143,-1.044381 -0.17875,-0.43274 -0.3243,-0.921982 -0.43718,-1.46761 -0.1035,-0.545629 -0.16972,-1.096026 -0.19792,-1.651062 l 1.56631,0.01447 c 0.37629,0 0.65377,-0.04246 0.83251,-0.127124 0.18812,-0.08467 0.30588,-0.197887 0.35295,-0.338997 0.0188,-0.09407 -0.009,-0.216384 -0.0847,-0.366903 -0.0753,-0.159926 -0.16927,-0.244325 -0.28216,-0.253731 h -0.67748 -0.57825 -0.59273 c -0.19756,-0.0094 -0.41843,-0.01395 -0.66301,-0.01395 -0.009,-0.131703 -0.019,-0.273228 -0.0284,-0.423747 -0.009,-0.159925 -0.019,-0.315086 -0.0284,-0.465604 -0.009,-0.159926 -0.0185,-0.310025 -0.0279,-0.451136 -0.0188,-0.141111 -0.033,-0.268483 -0.0424,-0.381372 -0.0283,-0.216369 -0.052,-0.37153 -0.0708,-0.465604 -0.0188,-0.09408 -0.0845,-0.150686 -0.19741,-0.169499 -0.1317,-0.01881 -0.25401,-0.01881 -0.3669,0 -0.1223,0.01881 -0.24461,0.02842 -0.3669,0.02842 -0.0941,0 -0.15525,0.05155 -0.18345,0.155029 -0.0376,0.09407 -0.0563,0.188597 -0.0563,0.28267 0,0.131704 0.005,0.281803 0.0139,0.451136 0.009,0.159926 0.0236,0.329239 0.0424,0.507979 0.009,0.169333 0.0236,0.338646 0.0424,0.507979 0.009,0.169334 0.0236,0.315404 0.0424,0.4377 -0.18815,0.01881 -0.35746,0.03751 -0.50798,0.05633 -0.15052,0.0094 -0.28244,0.08472 -0.39533,0.225826 -0.0376,0.04704 -0.0518,0.131952 -0.0424,0.254248 0.009,0.122295 0.019,0.2163 0.0284,0.282153 0.009,0.06585 0.0468,0.112857 0.11265,0.141077 0.0564,0.02823 0.13176,0.05147 0.22583,0.07028 0.0847,0.0094 0.18828,0.01902 0.31058,0.02842 0.11288,0 0.23519,0.0045 0.3669,0.01395 0.0659,0.86548 0.18361,1.655952 0.35295,2.370914 0.0646,0.284944 0.13976,0.553431 0.22582,0.806153 -0.0754,0.07986 -0.15046,0.168165 -0.22582,0.266133 -0.0941,0.122297 -0.19769,0.235 -0.31058,0.338481 -0.11289,0.09407 -0.27259,0.141593 -0.47955,0.141593 -0.17874,0 -0.38142,-0.05661 -0.6072,-0.169498 -0.21637,-0.122296 -0.39477,-0.352765 -0.53589,-0.691431 0.0376,-0.112889 0.075,-0.268049 0.11266,-0.465605 0.0376,-0.197555 0.0563,-0.390628 0.0563,-0.578776 0,-0.301036 -0.0515,-0.635117 -0.15502,-1.002006 -0.0941,-0.376295 -0.24469,-0.724013 -0.45166,-1.043864 -0.20696,-0.329259 -0.46573,-0.602184 -0.77618,-0.818554 -0.30103,-0.21637 -0.6629,-0.324528 -1.08624,-0.324528 -0.41392,0 -0.77631,0.07985 -1.08675,0.239778 -0.31045,0.159926 -0.56921,0.367151 -0.77618,0.621151 -0.20696,0.244592 -0.36667,0.526608 -0.47956,0.84646 -0.10348,0.310444 -0.15554,0.620766 -0.15554,0.931209 0,0.188148 0.0142,0.367069 0.0424,0.536402 0.0189,0.169333 0.0426,0.319949 0.0708,0.451652 -0.15052,0.169333 -0.29659,0.361889 -0.4377,0.578259 -0.0532,0.07639 -0.0964,0.14834 -0.13074,0.216524 -0.0504,0.06821 -0.10098,0.141931 -0.15142,0.221175 -0.0659,0.09407 -0.1361,0.18808 -0.21135,0.282154 -0.0659,0.08467 -0.14622,0.159972 -0.2403,0.225826 -0.0847,0.05645 -0.18776,0.08475 -0.31006,0.08475 -0.15992,0 -0.31054,-0.09907 -0.45165,-0.296623 -0.14111,-0.197555 -0.27758,-0.432569 -0.40928,-0.705383 -0.1223,-0.272814 -0.235,-0.550286 -0.33848,-0.832507 -0.10348,-0.291629 -0.198,-0.522098 -0.28267,-0.691431 -0.1317,-0.263407 -0.27725,-0.51309 -0.43718,-0.748275 -0.15993,-0.235184 -0.33885,-0.441893 -0.5364,-0.620634 -0.19755,-0.17874 -0.41387,-0.315203 -0.64906,-0.409277 -0.23518,-0.103481 -0.4985,-0.155029 -0.79013,-0.155029 -0.29163,0 -0.57364,0.0657 -0.84646,0.197404 -0.27281,0.131704 -0.51289,0.310624 -0.71985,0.536401 -0.21637,0.225778 -0.38569,0.489096 -0.50798,0.790133 -0.13171,0.301036 -0.1974,0.615903 -0.1974,0.945162 0,0.399225 0.0838,0.790046 0.25114,1.172538 -0.17722,0.245833 -0.35051,0.541244 -0.51935,0.887801 -0.17874,0.366888 -0.3622,0.724212 -0.55035,1.072286 -0.17874,0.338675 -0.37182,0.630295 -0.57878,0.874885 -0.19755,0.24459 -0.4088,0.3669 -0.63458,0.3669 -0.2446,0 -0.43766,-0.0889 -0.57878,-0.26768 -0.1411,-0.17874 -0.25381,-0.39557 -0.33848,-0.64957 -0.0846,-0.254004 -0.15085,-0.521871 -0.19792,-0.804092 -0.047,-0.291629 -0.0889,-0.550403 -0.12661,-0.77618 0.58326,-0.837258 1.01083,-1.763677 1.28365,-2.779676 0.27281,-1.025405 0.40927,-2.060499 0.40927,-3.10472 0,-0.555036 -0.0233,-1.086219 -0.0703,-1.594218 -0.0376,-0.507999 -0.12254,-0.9553 -0.25424,-1.341003 -0.1223,-0.385703 -0.30071,-0.690963 -0.53589,-0.91674 -0.23519,-0.225778 -0.55057,-0.338997 -0.94568,-0.338997 -0.24458,0 -0.45635,0.07985 -0.6351,0.239778 -0.17874,0.159926 -0.32936,0.357545 -0.45165,0.592729 -0.13171,0.225778 -0.2348,0.470399 -0.31006,0.733805 -0.0753,0.254 -0.12735,0.484469 -0.15555,0.691431 -0.0565,0.395111 -0.0939,0.785802 -0.11265,1.171505 -0.0282,0.376295 -0.0424,0.75738 -0.0424,1.143082 0,0.874888 0.0515,1.735607 0.15503,2.582272 0.09,0.801468 0.20223,1.607335 0.33538,2.417423 -0.0808,0.08784 -0.17312,0.175712 -0.27853,0.26355 -0.10348,0.08467 -0.22125,0.159973 -0.35295,0.225826 -0.1223,0.05645 -0.25422,0.08475 -0.39533,0.08475 -0.19755,0 -0.38102,-0.06115 -0.55035,-0.183451 -0.16934,-0.131703 -0.32904,-0.301016 -0.47956,-0.507979 -0.14111,-0.206963 -0.27757,-0.442493 -0.40928,-0.7059 -0.12229,-0.272814 -0.24005,-0.545224 -0.35295,-0.818038 -0.1317,-0.291629 -0.2631,-0.56001 -0.39481,-0.804602 -0.12229,-0.254 -0.2633,-0.470316 -0.42323,-0.649056 -0.15052,-0.188148 -0.32489,-0.329156 -0.52244,-0.42323 -0.19756,-0.103481 -0.42803,-0.155546 -0.69143,-0.155546 -0.16934,0 -0.3528,0.047 -0.55036,0.141076 -0.18815,0.08467 -0.37616,0.197887 -0.56431,0.338998 -0.17874,0.131703 -0.35766,0.272711 -0.5364,0.42323 -0.16933,0.150518 -0.32449,0.282436 -0.4656,0.395324 v -0.254248 c 0,-0.385703 -0.047,-0.630323 -0.14108,-0.733805 -0.0847,-0.103481 -0.24891,-0.155029 -0.49351,-0.155029 -0.10348,0 -0.22579,0.01415 -0.3669,0.04237 -0.14111,0.02822 -0.25888,0.136381 -0.35295,0.324528 -0.1223,0.21637 -0.235,0.427625 -0.33848,0.634587 -0.0941,0.206963 -0.19768,0.428341 -0.31058,0.663525 -0.11288,0.225778 -0.2448,0.474945 -0.39532,0.747758 -0.15051,0.263407 -0.33853,0.564638 -0.56431,0.903304 -0.0112,0.01869 -0.021,0.03823 -0.03,0.0584 -0.16287,0.233964 -0.32228,0.51078 -0.47801,0.83044 -0.17874,0.366888 -0.3622,0.724212 -0.55035,1.072286 -0.17874,0.338673 -0.37181,0.630293 -0.57878,0.874883 -0.19755,0.24459 -0.4088,0.3669 -0.63458,0.3669 -0.2446,0 -0.43767,-0.0889 -0.57878,-0.26768 -0.14111,-0.17874 -0.25381,-0.39557 -0.33848,-0.64957 -0.0847,-0.254002 -0.15092,-0.521869 -0.19792,-0.80409 -0.0471,-0.291629 -0.089,-0.550403 -0.12661,-0.77618 0.58325,-0.837258 1.01082,-1.763677 1.28364,-2.779676 0.27282,-1.025405 0.40928,-2.060499 0.40928,-3.10472 0,-0.555036 -0.0232,-1.086219 -0.0703,-1.594218 -0.0376,-0.507999 -0.12254,-0.9553 -0.25425,-1.341003 -0.12229,-0.385703 -0.30069,-0.690963 -0.53588,-0.91674 -0.23519,-0.225778 -0.55057,-0.338997 -0.94568,-0.338997 z m 0.0563,1.11466 c 0.0941,0 0.17443,0.06115 0.24029,0.183452 0.0753,0.122296 0.13138,0.287064 0.16898,0.494026 0.0471,0.206963 0.0799,0.451584 0.0987,0.733806 0.0188,0.272814 0.0284,0.568983 0.0284,0.888834 0,0.696147 -0.0187,1.312762 -0.0563,1.848983 -0.0376,0.536221 -0.0942,1.011311 -0.1695,1.425236 -0.0753,0.404518 -0.16926,0.752235 -0.28215,1.043864 -0.10348,0.282222 -0.23034,0.526843 -0.38086,0.733805 -0.047,-0.178739 -0.0894,-0.409209 -0.12712,-0.69143 -0.0282,-0.282222 -0.052,-0.587998 -0.0708,-0.917257 -0.0188,-0.338666 -0.0325,-0.681838 -0.0419,-1.029911 -0.009,-0.348074 -0.0145,-0.682155 -0.0145,-1.002006 0,-0.150519 0.005,-0.348137 0.0145,-0.592729 0,-0.244592 0.009,-0.503366 0.0279,-0.77618 0.009,-0.272814 0.0281,-0.545223 0.0563,-0.818038 0.0282,-0.282222 0.0661,-0.53645 0.11317,-0.762227 0.047,-0.225778 0.10311,-0.409244 0.16898,-0.550354 0.0658,-0.141111 0.14116,-0.211874 0.22583,-0.211874 z m 14.77429,0 c 0.0941,0 0.17443,0.06115 0.24029,0.183452 0.0753,0.122296 0.13139,0.287064 0.16899,0.494026 0.0471,0.206963 0.0799,0.451584 0.0987,0.733806 0.0188,0.272814 0.0284,0.568983 0.0284,0.888834 0,0.696147 -0.0187,1.312762 -0.0563,1.848983 -0.0376,0.536221 -0.0942,1.011311 -0.1695,1.425236 -0.0753,0.404518 -0.16926,0.752235 -0.28215,1.043864 -0.10348,0.282222 -0.23033,0.526843 -0.38085,0.733805 -0.0471,-0.178739 -0.0895,-0.409209 -0.12713,-0.69143 -0.0283,-0.282222 -0.052,-0.587998 -0.0708,-0.917257 -0.0188,-0.338666 -0.033,-0.681838 -0.0424,-1.029911 -0.009,-0.348074 -0.0139,-0.682155 -0.0139,-1.002006 0,-0.150519 0.005,-0.348137 0.0139,-0.592729 0,-0.244592 0.01,-0.503366 0.0284,-0.77618 0.009,-0.272814 0.0281,-0.545223 0.0563,-0.818038 0.0282,-0.282222 0.0661,-0.53645 0.11317,-0.762227 0.047,-0.225778 0.10312,-0.409244 0.16898,-0.550354 0.0659,-0.141111 0.14116,-0.211874 0.22583,-0.211874 z m 13.22245,5.023983 c 0.254,0 0.46577,0.07479 0.6351,0.225309 0.17874,0.150518 0.31975,0.329439 0.42323,0.536402 0.10345,0.206963 0.17369,0.428341 0.21136,0.663525 0.047,0.225777 0.0708,0.413788 0.0708,0.564307 0,0.141111 -0.0283,0.296272 -0.0847,0.465604 -0.0565,0.169334 -0.1363,0.329039 -0.23978,0.479558 -0.0941,0.150518 -0.20729,0.277891 -0.339,0.381372 -0.1317,0.09407 -0.27271,0.141076 -0.42323,0.141076 -0.16933,0 -0.3341,-0.05206 -0.49403,-0.155546 -0.15052,-0.103481 -0.28192,-0.234882 -0.39481,-0.394808 -0.11288,-0.169333 -0.20689,-0.357861 -0.28215,-0.564823 -0.0659,-0.206963 -0.0987,-0.418217 -0.0987,-0.634587 0,-0.169333 0.0137,-0.352798 0.0419,-0.550354 0.0376,-0.206962 0.0942,-0.39549 0.1695,-0.564823 0.0752,-0.169333 0.17886,-0.310341 0.31057,-0.42323 0.13171,-0.112889 0.29647,-0.168982 0.49403,-0.168982 z m -38.04729,0.151412 c 0.0635,0.0024 0.12592,0.01777 0.18707,0.04599 0.1223,0.05644 0.19255,0.160057 0.21135,0.310575 0.009,0.21637 -0.028,0.432687 -0.11265,0.649056 -0.0847,0.206963 -0.20243,0.404581 -0.35295,0.592729 -0.14111,0.188148 -0.31043,0.366552 -0.50798,0.535885 -0.19755,0.169333 -0.39972,0.324494 -0.60668,0.465604 -0.0376,-0.225777 -0.0467,-0.474943 -0.0279,-0.747758 0.0282,-0.272814 0.0798,-0.531588 0.15503,-0.77618 0.0847,-0.244592 0.19737,-0.460908 0.33848,-0.649056 0.14111,-0.197553 0.31548,-0.328954 0.52245,-0.394808 0.0659,-0.02352 0.13029,-0.03439 0.19379,-0.03204 z m 5.90196,0.525549 c 0.10352,0 0.17883,0.04246 0.22583,0.127124 0.0565,0.07526 0.0847,0.178872 0.0847,0.310576 0,0.112888 -0.0237,0.244289 -0.0708,0.394808 -0.047,0.150518 -0.11728,0.305679 -0.21135,0.465604 -0.0941,0.159926 -0.21184,0.320149 -0.35295,0.480074 -0.14112,0.159926 -0.30588,0.300935 -0.49403,0.42323 -0.0753,-0.07526 -0.12683,-0.173809 -0.15503,-0.296106 -0.0282,-0.131703 -0.0424,-0.273228 -0.0424,-0.423746 0,-0.159925 0.0187,-0.324177 0.0563,-0.49351 0.047,-0.178741 0.11326,-0.338963 0.19792,-0.480074 0.0847,-0.150518 0.18777,-0.272829 0.31006,-0.366903 0.13171,-0.09407 0.28232,-0.141077 0.45165,-0.141077 z m 24.58145,0.0987 c 0.22578,0 0.40469,0.05661 0.5364,0.169499 0.1317,0.112889 0.23532,0.258959 0.31058,0.437699 0.0753,0.178741 0.12682,0.380905 0.15502,0.606682 0.0282,0.21637 0.0469,0.432685 0.0563,0.649056 0.009,0.489184 -0.0608,0.837418 -0.21135,1.04438 -0.15052,0.197556 -0.30114,0.296106 -0.45166,0.296106 -0.15992,0 -0.32924,-0.05155 -0.50798,-0.155029 -0.16933,-0.112888 -0.32449,-0.254413 -0.4656,-0.423747 -0.14111,-0.17874 -0.25888,-0.380904 -0.35295,-0.606681 -0.0941,-0.225778 -0.14108,-0.456246 -0.14108,-0.691431 0,-0.131703 0.0237,-0.272712 0.0708,-0.42323 0.047,-0.159925 0.11728,-0.305479 0.21136,-0.437182 0.0941,-0.131704 0.20729,-0.240378 0.33899,-0.325045 0.1317,-0.09407 0.28181,-0.141077 0.45114,-0.141077 z m -47.4555,2.498039 h 0.2682 c -0.009,0.357481 -0.0706,0.611192 -0.18345,0.761711 -0.1129,0.150518 -0.24935,0.225826 -0.40928,0.225826 -0.17874,0 -0.32936,-0.05155 -0.45165,-0.15503 -0.11289,-0.112888 -0.16898,-0.249351 -0.16898,-0.409277 0,-0.141109 0.0889,-0.244722 0.26768,-0.310575 0.18815,-0.07526 0.41407,-0.112655 0.67748,-0.112655 z m 69.86395,0 h 0.2682 c -0.009,0.357481 -0.0706,0.611192 -0.18345,0.761711 -0.11289,0.150518 -0.24935,0.225826 -0.40928,0.225826 -0.17874,0 -0.32936,-0.05155 -0.45165,-0.15503 -0.11289,-0.112888 -0.16898,-0.249351 -0.16898,-0.409277 0,-0.141109 0.0889,-0.244722 0.26768,-0.310575 0.18816,-0.07526 0.41407,-0.112655 0.67748,-0.112655 z" />
    </g>
  </g>
</svg>
