<?xml version="1.0" encoding="UTF-8" standalone="no"?>
<!-- Created with Inkscape (http://www.inkscape.org/) -->

<svg
   width="47.451698mm"
   height="56.028969mm"
   viewBox="0 0 47.451698 56.028969"
   version="1.1"
   id="svg5"
   xmlns="http://www.w3.org/2000/svg"
   xmlns:svg="http://www.w3.org/2000/svg">
  <defs
     id="defs2" />
  <g
     id="layer1"
     transform="translate(-36.310105,-11.458107)">
    <path
       style="fill:#008080;stroke:none;stroke-width:0.264583px;stroke-linecap:butt;stroke-linejoin:miter;stroke-opacity:1"
       d="m 37.455901,23.513981 c -1.222106,1.935649 -1.040443,3.815262 -1.040443,6.034561 0,0.693629 -0.237043,1.429017 0,2.080884 1.214327,3.339399 4.252452,3.548187 6.866914,1.456619 0.619501,-0.495599 1.824469,-0.759862 2.288971,-1.456619 0.480534,-0.720796 1.297033,-4.480941 0.832356,-5.410296 -0.593752,-1.187499 -2.214671,-2.3088 -3.121327,-2.913237 -0.562031,-0.374687 -1.089332,-0.06424 -1.664705,-0.208088 -0.242626,-0.06066 -0.379032,-0.36713 -0.624266,-0.416177 -1.497891,-0.299578 -3.119311,-0.84041 -3.5375,0.832353 z"
       id="path2585" />
    <path
       style="fill:#008080;stroke:none;stroke-width:0.264583px;stroke-linecap:butt;stroke-linejoin:miter;stroke-opacity:1"
       d="m 73.871356,41.617667 c -2.621748,0.224636 -3.953676,0.934571 -3.953676,3.5375 0,0.371483 -0.134515,1.885434 0,2.288971 0.635317,1.905953 4.562676,3.542591 6.450737,2.913237 2.704989,-0.901663 2.705148,-2.485959 2.705148,-4.994119 0,-0.446071 0.160464,-1.263549 0,-1.664708 -0.312622,-0.781552 -4.280506,-1.850456 -5.202209,-2.080881 z"
       id="path2587" />
    <path
       style="fill:#008080;stroke:none;stroke-width:0.264583px;stroke-linecap:butt;stroke-linejoin:miter;stroke-opacity:1"
       d="m 71.998561,25.178688 c -3.461512,1.156637 -3.121324,1.6703 -3.121324,4.78603 0,0.346816 -0.200001,0.757108 0,1.040442 1.658811,2.349985 4.371912,4.048827 7.075004,4.786032 0.446981,0.121905 1.206825,0.457843 1.664705,0.20809 3.101454,-1.691704 6.034564,-3.966146 6.034564,-7.699269 0,-0.554903 0.248158,-1.168387 0,-1.664706 -1.295996,-2.591992 -1.279359,-2.59436 -3.121327,-3.745591 -0.968592,-0.60537 -4.798872,-1.242109 -6.034561,-0.624265 -0.672095,0.336048 -1.052351,1.048382 -1.664705,1.456619 -0.454033,0.302687 -0.832356,0.810052 -0.832356,1.456618 z"
       id="path2589" />
    <path
       style="fill:#008080;stroke:none;stroke-width:0.264583px;stroke-linecap:butt;stroke-linejoin:miter;stroke-opacity:1"
       d="m 45.571343,39.952959 c -2.303055,0.0091 -2.705147,0.902864 -2.705147,2.913237 0,0.416176 -0.186119,0.876289 0,1.248529 1.291971,2.583944 5.603901,2.719631 7.491179,0.832355 0.419058,-0.419058 0.404167,-1.114459 0.624266,-1.664708 0.342045,-0.855112 0.637932,-1.291069 0.416176,-2.288971 -0.396581,-1.784612 -1.76713,-1.495433 -3.121323,-1.664706 -0.342488,-0.04281 -2.307551,-0.58711 -2.497061,-0.208089 -0.1279,0.255796 -0.138727,0.554903 -0.20809,0.832353 z"
       id="path2591" />
    <path
       style="fill:#008080;stroke:none;stroke-width:0.264583px;stroke-linecap:butt;stroke-linejoin:miter;stroke-opacity:1"
       d="m 58.264731,28.398319 c 1.36453,0.612598 1.944182,1.347068 2.913237,2.606841 0.377495,0.490742 2.071815,2.468142 1.456619,3.329414 -0.258149,0.36141 -0.652195,0.616662 -1.040442,0.832353 -0.371711,0.206507 -4.557356,0.426471 -4.994119,0.208089 -0.395864,-0.197932 -0.790689,-0.831871 -0.832353,-1.248529 -0.02384,-0.238355 -0.186925,-4.204094 0,-4.577945 0.271611,-0.543219 1.983663,-0.954159 2.497058,-1.150223 z"
       id="path2593" />
    <path
       style="fill:#008080;stroke:none;stroke-width:0.264583px;stroke-linecap:butt;stroke-linejoin:miter;stroke-opacity:1"
       d="m 64.091205,21.876127 c 0.12024,-2.574796 -0.591301,-5.158326 -2.080884,-7.309944 -0.915858,-1.322908 -4.098208,-1.244176 -5.202206,-0.416177 -0.688864,0.516647 -1.137126,1.005231 -1.664708,1.664707 -0.149839,0.187297 -0.807865,0.771088 -0.832352,1.040442 -0.09493,1.044179 -0.288021,3.42587 0,4.577943 0.13123,0.524923 0.642201,1.04941 1.040442,1.24853 0.263213,0.131607 0.388839,0.447696 0.624263,0.624265 1.416693,1.062519 3.687664,0.832353 5.410298,0.832353 0.282273,0 1.249336,0.103641 1.456618,0 0.138724,-0.06936 0.122053,-0.287126 0.208087,-0.416176 0.653055,-0.979584 1.040442,-0.247642 1.040442,-1.845943 z"
       id="path2595" />
    <path
       style="fill:#008080;stroke:none;stroke-width:0.264583px;stroke-linecap:butt;stroke-linejoin:miter;stroke-opacity:1"
       d="m 59.223319,41.483975 c -0.21177,2.41585 -0.88592,4.919724 2.162739,4.919724 0.416176,0 0.876289,0.186118 1.248529,0 0.784455,-0.392229 2.126191,-3.722937 1.664708,-3.95368 -1.56427,-0.782134 -3.20938,-1.162711 -5.075976,-0.966044 z"
       id="path2599" />
    <path
       style="fill:#008080;stroke:none;stroke-width:0.264583px;stroke-linecap:butt;stroke-linejoin:miter;stroke-opacity:1"
       d="m 78.750954,11.671331 c -2.415847,-0.21177 -4.919721,-0.88592 -4.919721,2.162739 0,0.416176 -0.186118,0.876289 0,1.248529 0.392229,0.784454 3.722941,2.126194 3.953681,1.664704 0.78213,-1.56427 1.16271,-3.209376 0.96604,-5.075972 z"
       id="path2599-8" />
    <path
       style="fill:#008080;stroke:none;stroke-width:0.264583px;stroke-linecap:butt;stroke-linejoin:miter;stroke-opacity:1"
       d="m 51.606203,60.137526 c -1.698365,-0.156379 -2.145641,2.671985 -1.665004,3.953679 0.239869,0.639649 0.453414,1.304386 0.832353,1.872795 0.437012,0.655516 1.023553,0.927955 1.664708,1.248529 4.012078,2.006039 4.162591,-7.629628 3.329413,-7.907356 -0.591976,-0.197323 -1.443559,0 -2.080884,0 -1.039098,0 -1.487938,-0.05725 -2.080586,0.832353 z"
       id="path2603" />
    <path
       style="fill:#008080;stroke:none;stroke-width:0.264583px;stroke-linecap:butt;stroke-linejoin:miter;stroke-opacity:1"
       d="m 70.958119,57.016202 c -1.639342,0.121052 -2.086882,0.369406 -3.329411,1.456619 -0.188214,0.164687 -0.491717,0.204099 -0.624266,0.416176 -1.079439,1.727102 -0.683895,7.098855 2.497061,5.826474 0.904656,-0.361862 1.310182,-0.685919 1.872795,-1.248531 0.320326,-0.320326 0.928203,-0.512027 1.248529,-0.832353 0.897623,-0.897623 1.040442,-2.521008 1.040442,-3.74559 0,-0.07298 0.07961,-0.960832 0,-1.040442 -0.441081,-0.441082 -2.067184,-0.672862 -2.70515,-0.832353 z"
       id="path2605" />
    <path
       style="fill:#008080;stroke:none;stroke-width:0.264583px;stroke-linecap:butt;stroke-linejoin:miter;stroke-opacity:1"
       d="m 55.546738,52.022083 c -0.604401,1.036852 -0.992986,2.774368 -0.403331,3.953677 0.211339,0.42268 2.995623,0.374983 3.329414,0.208089 0.926131,-0.463065 2.622409,-1.371398 2.288971,-2.705147 -0.24674,-0.986967 -1.075518,-2.410555 -2.080882,-2.913237 -0.129135,-0.06457 -0.739791,0 -0.832355,0 -1.378445,0 -2.270133,-0.08308 -2.301817,1.456618 z"
       id="path2607" />
  </g>
</svg>
