<?xml version="1.0" encoding="UTF-8" standalone="no"?>
<!-- Created with Inkscape (http://www.inkscape.org/) -->

<svg
   width="64.409081mm"
   height="64.307831mm"
   viewBox="0 0 64.409081 64.307831"
   version="1.1"
   id="svg5"
   xmlns="http://www.w3.org/2000/svg"
   xmlns:svg="http://www.w3.org/2000/svg">
  <defs
     id="defs2" />
  <g
     id="layer1"
     transform="translate(-16.047234,-11.666108)">
    <path
       style="fill:none;stroke:#008000;stroke-width:1;stroke-linecap:butt;stroke-linejoin:miter;stroke-opacity:1"
       d="m 44.738991,64.507382 c 2.734746,0.404299 5.690613,1.685607 8.531621,1.248531 6.439906,-0.990756 13.341297,-5.923084 16.855154,-11.444858 1.006123,-1.58105 2.002838,-3.390056 2.497061,-5.202209 0.38445,-1.409649 0.709853,-3.047505 1.040442,-4.369855 0.08411,-0.336458 -0.245234,-0.795208 0,-1.040443 0.27745,-0.27745 0.656879,0.481404 0.832353,0.832356 2.743335,5.486667 6.607064,16.549896 3.74559,22.681625 -0.79089,1.694765 -2.395252,3.435694 -3.74559,4.786032 -1.264174,1.264177 -3.393615,0.985883 -4.994119,1.456619 -0.716706,0.210796 -1.361077,0.632407 -2.080884,0.832353 -1.402969,0.389715 -1.75105,0.102684 -3.121324,0.208089 -1.207389,0.09288 -2.345206,0.491786 -3.537503,0.624266 -3.205274,0.35614 -6.775741,0.475795 -9.98824,0.208087 -1.543423,-0.12862 -1.724282,-0.57476 -3.121324,-1.040442 -0.06662,-0.0222 -1.442236,-0.2382 -1.664708,-0.416177 -0.195287,-0.156228 -0.199036,-0.500184 -0.416177,-0.624263 -0.30708,-0.175477 -0.768733,0.01834 -1.040439,-0.20809 -0.219705,-0.183086 -0.0662,-0.584043 -0.20809,-0.832352 -0.365821,-0.640189 -1.047617,-1.051206 -1.456618,-1.664708 -1.358678,-2.038017 -1.664706,-3.885335 -1.664706,-6.242648 0,-0.06592 -0.12166,-1.999779 0,-2.080885 0.949712,-0.633142 1.476404,1.476407 1.872795,1.872795 0.06923,0.06923 0.790358,-0.014 0.832353,0 0.29428,0.0981 0.554903,0.27745 0.832353,0.416177 z"
       id="path2786" />
    <path
       style="fill:none;stroke:#008000;stroke-width:1;stroke-linecap:butt;stroke-linejoin:miter;stroke-opacity:1"
       d="m 60.199079,42.24193 c -0.852871,-0.48554 -1.873242,-0.75419 -2.558611,-1.456619 -2.005613,-2.055526 -4.98507,-6.313881 -5.826474,-9.363974 -0.686295,-2.487822 -1.158298,-8.015074 -0.416177,-10.612504 0.26788,-0.937582 1.517291,-2.653101 2.080885,-3.329413 1.898306,-2.277969 5.111782,-3.925856 7.907356,-4.786032 1.959075,-0.602792 5.633177,-0.416176 7.699266,-0.416176 0.949124,0 2.202961,-0.229592 3.121327,0 3.200318,0.800079 5.768911,4.085018 7.699269,6.658826 0.305879,0.407841 -0.963205,0 -1.040442,0 -1.109806,0 -2.219611,0 -3.329414,0 -3.335044,0 -7.396445,1.986149 -9.780151,4.369855 -0.329017,0.329017 -0.377658,0.853956 -0.624265,1.24853 -1.061104,1.697763 -2.869769,3.758068 -3.329414,5.826474 -0.06019,0.270844 0.08774,0.56914 0,0.832353 -0.06204,0.186118 -0.368594,0.225846 -0.416176,0.416176 -0.236604,0.946412 -0.320593,2.783814 0,3.74559 0.222615,0.667851 -0.101473,1.578668 0,2.288971 0.249354,1.74548 1.456618,3.376473 1.456618,5.202209 0,0.42496 -2.518045,-0.59037 -2.643597,-0.624266 z"
       id="path2788" />
    <path
       style="fill:none;stroke:#008000;stroke-width:1;stroke-linecap:butt;stroke-linejoin:miter;stroke-opacity:1"
       d="m 51.631755,53.291432 c 0.191108,-0.289409 0.516904,-0.526031 0.573329,-0.868224 0.06864,-0.416295 -0.163277,-0.828222 -0.224778,-1.245633 -0.09169,-0.62231 0.01094,-1.425985 -0.04329,-1.973624 -0.174625,-1.763497 -1.376744,-3.880073 -2.355089,-5.345518 -1.537997,-2.303723 -0.803601,-0.850212 -2.563411,-2.83982 -1.326817,-1.500074 -0.404868,-1.258962 -2.423179,-2.447981 -0.160916,-0.0948 -1.950134,-0.654117 -2.254089,-0.740393 -1.204733,-0.341957 -0.388354,-0.09164 -2.043741,-0.152633 -0.830621,-0.0306 -1.674954,-0.195783 -2.505695,-0.208321 -1.215449,-0.01834 -2.40786,0.381905 -3.611096,0.408295 -0.310125,0.0068 -0.617026,-0.156589 -0.923913,-0.111375 -2.147769,0.316445 -4.898909,1.311206 -6.997416,2.062225 -2.65106,0.948766 -5.6611,1.618666 -7.416089,3.980162 -1.885943,2.537706 -2.358632,6.496969 -2.289264,9.659801 0.02235,1.019162 1.132344,9.324665 1.924019,9.699034 0.08868,0.04193 0.06729,-0.187302 0.125804,-0.266038 0.24125,-0.324621 0.489598,-0.646145 0.769249,-0.938337 1.337848,-1.397849 1.943816,-3.107717 3.258491,-4.481349 3.620327,-3.782694 7.63516,-5.826666 12.536825,-7.580884 1.722148,-0.616325 3.38255,-1.390571 5.234143,-1.431179 1.464978,-0.03213 5.113694,1.029804 6.300311,2.16549 0.342643,0.327937 0.437805,1.136543 0.756847,1.49724 0.875974,0.99036 0.362064,-0.110554 1.008456,0.965168 0.34201,0.569172 0.591513,3.046687 1.191974,3.330634 0.249706,0.118084 0.439,-0.324099 0.517643,-0.406269 0.197742,-0.206609 0.542972,-0.246841 0.713563,-0.476383 0.674767,-0.907963 0.261323,-1.24101 0.740392,-2.254088 z"
       id="path2790" />
  </g>
</svg>
